<?xml version="1.0" encoding="UTF-8" standalone="no"?><!DOCTYPE svg PUBLIC "-//W3C//DTD SVG 1.1//EN" "http://www.w3.org/Graphics/SVG/1.1/DTD/svg11.dtd"><svg width="100%" height="100%" viewBox="0 0 3334 2500" version="1.1" xmlns="http://www.w3.org/2000/svg" xmlns:xlink="http://www.w3.org/1999/xlink" xml:space="preserve" xmlns:serif="http://www.serif.com/" style="fill-rule:evenodd;clip-rule:evenodd;stroke-linejoin:round;stroke-miterlimit:2;"><g transform="matrix(4.16667,0,0,4.16667,-506.194,237.846)"><g transform="matrix(0.767597,-0.640933,0.640933,0.767597,-68.9982,229.239)"><g transform="matrix(198,0,0,198,281.605,209.763)"><path d="M0.043,-0.355c0.012,-0.07 0.037,-0.132 0.075,-0.187c0.038,-0.055 0.086,-0.097 0.144,-0.127c0.058,-0.031 0.123,-0.046 0.194,-0.046c0.061,0 0.114,0.012 0.159,0.035c0.044,0.023 0.078,0.055 0.101,0.097c0.023,0.042 0.035,0.091 0.034,0.147l-0.234,0c-0.007,-0.023 -0.019,-0.041 -0.036,-0.054c-0.017,-0.013 -0.039,-0.02 -0.064,-0.02c-0.037,0 -0.069,0.014 -0.096,0.042c-0.027,0.028 -0.044,0.066 -0.052,0.113c-0.003,0.013 -0.004,0.028 -0.004,0.043c0,0.035 0.009,0.062 0.026,0.082c0.017,0.02 0.041,0.03 0.072,0.03c0.025,0 0.049,-0.006 0.071,-0.019c0.022,-0.013 0.04,-0.032 0.055,-0.055l0.234,0c-0.02,0.056 -0.049,0.105 -0.087,0.147c-0.038,0.042 -0.083,0.075 -0.136,0.098c-0.052,0.023 -0.109,0.034 -0.17,0.034c-0.062,-0 -0.115,-0.011 -0.159,-0.034c-0.044,-0.023 -0.077,-0.056 -0.1,-0.098c-0.023,-0.043 -0.034,-0.092 -0.034,-0.148c0,-0.027 0.002,-0.054 0.007,-0.08Z" style="fill:#7ab592;fill-rule:nonzero;"/></g></g><g transform="matrix(0.983301,-0.181984,0.181984,0.983301,-14.1162,74.615)"><g transform="matrix(198,0,0,198,399.526,114.228)"><path d="M0.473,-0.107l-0.236,0l-0.054,0.107l-0.233,-0l0.384,-0.708l0.256,0l0.133,0.708l-0.234,-0l-0.016,-0.107Zm-0.024,-0.167l-0.029,-0.197l-0.099,0.197l0.128,0Z" style="fill:#7ab592;fill-rule:nonzero;"/></g></g><g transform="matrix(0.958005,0.286752,-0.286752,0.958005,50.649,-154.194)"><g transform="matrix(198,0,0,198,551.762,95.8243)"><path d="M0.252,-0.168l0.214,0l-0.03,0.168l-0.436,-0l0.125,-0.708l0.222,0l-0.095,0.54Z" style="fill:#7ab592;fill-rule:nonzero;"/></g></g><g transform="matrix(0.705465,0.708745,-0.708745,0.705465,278.11,-427.595)"><g transform="matrix(198,0,0,198,653.519,120.813)"><path d="M0.043,-0.355c0.012,-0.07 0.037,-0.132 0.075,-0.187c0.038,-0.055 0.086,-0.097 0.144,-0.127c0.058,-0.031 0.123,-0.046 0.194,-0.046c0.061,0 0.114,0.012 0.159,0.035c0.044,0.023 0.078,0.055 0.101,0.097c0.023,0.042 0.035,0.091 0.034,0.147l-0.234,0c-0.007,-0.023 -0.019,-0.041 -0.036,-0.054c-0.017,-0.013 -0.039,-0.02 -0.064,-0.02c-0.037,0 -0.069,0.014 -0.096,0.042c-0.027,0.028 -0.044,0.066 -0.052,0.113c-0.003,0.013 -0.004,0.028 -0.004,0.043c0,0.035 0.009,0.062 0.026,0.082c0.017,0.02 0.041,0.03 0.072,0.03c0.025,0 0.049,-0.006 0.071,-0.019c0.022,-0.013 0.04,-0.032 0.055,-0.055l0.234,0c-0.02,0.056 -0.049,0.105 -0.087,0.147c-0.038,0.042 -0.083,0.075 -0.136,0.098c-0.052,0.023 -0.109,0.034 -0.17,0.034c-0.062,-0 -0.115,-0.011 -0.159,-0.034c-0.044,-0.023 -0.077,-0.056 -0.1,-0.098c-0.023,-0.043 -0.034,-0.092 -0.034,-0.148c0,-0.027 0.002,-0.054 0.007,-0.08Z" style="fill:#7ab592;fill-rule:nonzero;"/></g></g></g><g><path id="Caculator" d="M1949.44,2359.07c-72.357,0 -131.016,-57.498 -131.016,-128.405c-0,-70.917 58.659,-128.405 131.016,-128.405c72.352,-0 131.021,57.488 131.021,128.405c0,70.907 -58.669,128.405 -131.021,128.405Zm-14.682,-563.781c72.362,-0 131.016,57.489 131.016,128.405c0,70.916 -58.654,128.405 -131.016,128.405c-72.362,-0 -131.017,-57.489 -131.017,-128.405c0,-70.916 58.655,-128.405 131.017,-128.405Zm-314.445,-54.958c-72.352,0 -131.016,-57.489 -131.016,-128.405c-0,-70.907 58.664,-128.405 131.016,-128.405c72.362,-0 131.017,57.498 131.017,128.405c-0,70.916 -58.655,128.405 -131.017,128.405Zm0,311.768c-72.352,-0 -131.016,-57.489 -131.016,-128.405c-0,-70.916 58.664,-128.405 131.016,-128.405c72.362,-0 131.017,57.489 131.017,128.405c-0,70.916 -58.655,128.405 -131.017,128.405Zm131.017,188.159c-0,70.908 -58.655,128.406 -131.017,128.406l-311.682,-0c-72.352,-0 -131.022,-57.498 -131.022,-128.406c0,-70.925 58.67,-128.405 131.022,-128.405l311.682,0c72.362,0 131.017,57.48 131.017,128.405Zm-445.461,-444.969c72.372,-0 131.016,57.489 131.016,128.405c0,70.916 -58.644,128.405 -131.016,128.405c-72.352,-0 -131.017,-57.489 -131.017,-128.405c0,-70.916 58.665,-128.405 131.017,-128.405Zm-0,-311.768c72.372,-0 131.016,57.498 131.016,128.405c0,70.916 -58.644,128.405 -131.016,128.405c-72.352,0 -131.017,-57.489 -131.017,-128.405c0,-70.907 58.665,-128.405 131.017,-128.405Zm759.905,128.405c0,70.916 -58.654,128.405 -131.016,128.405c-72.362,0 -131.017,-57.489 -131.017,-128.405c0,-70.907 58.655,-128.405 131.017,-128.405c72.362,-0 131.016,57.498 131.016,128.405Zm-863.896,-238.614l831.977,0l-0,-297.377l-831.977,0l-0,297.377Zm795.532,-433.386l-753.436,0c-100.579,0 -182.108,79.896 -182.108,178.465l-0,1174.76c-0,98.579 81.529,178.475 182.108,178.475l753.436,-0c100.579,-0 182.109,-79.896 182.109,-178.475l0,-1174.76c0,-98.569 -81.53,-178.465 -182.109,-178.465Z" style="fill:#55795b;"/><clipPath id="_clip1"><path d="M1949.44,2359.07c-72.357,0 -131.016,-57.498 -131.016,-128.405c-0,-70.917 58.659,-128.405 131.016,-128.405c72.352,-0 131.021,57.488 131.021,128.405c0,70.907 -58.669,128.405 -131.021,128.405Zm-14.682,-563.781c72.362,-0 131.016,57.489 131.016,128.405c0,70.916 -58.654,128.405 -131.016,128.405c-72.362,-0 -131.017,-57.489 -131.017,-128.405c0,-70.916 58.655,-128.405 131.017,-128.405Zm-314.445,-54.958c-72.352,0 -131.016,-57.489 -131.016,-128.405c-0,-70.907 58.664,-128.405 131.016,-128.405c72.362,-0 131.017,57.498 131.017,128.405c-0,70.916 -58.655,128.405 -131.017,128.405Zm0,311.768c-72.352,-0 -131.016,-57.489 -131.016,-128.405c-0,-70.916 58.664,-128.405 131.016,-128.405c72.362,-0 131.017,57.489 131.017,128.405c-0,70.916 -58.655,128.405 -131.017,128.405Zm131.017,188.159c-0,70.908 -58.655,128.406 -131.017,128.406l-311.682,-0c-72.352,-0 -131.022,-57.498 -131.022,-128.406c0,-70.925 58.67,-128.405 131.022,-128.405l311.682,0c72.362,0 131.017,57.48 131.017,128.405Zm-445.461,-444.969c72.372,-0 131.016,57.489 131.016,128.405c0,70.916 -58.644,128.405 -131.016,128.405c-72.352,-0 -131.017,-57.489 -131.017,-128.405c0,-70.916 58.665,-128.405 131.017,-128.405Zm-0,-311.768c72.372,-0 131.016,57.498 131.016,128.405c0,70.916 -58.644,128.405 -131.016,128.405c-72.352,0 -131.017,-57.489 -131.017,-128.405c0,-70.907 58.665,-128.405 131.017,-128.405Zm759.905,128.405c0,70.916 -58.654,128.405 -131.016,128.405c-72.362,0 -131.017,-57.489 -131.017,-128.405c0,-70.907 58.655,-128.405 131.017,-128.405c72.362,-0 131.016,57.498 131.016,128.405Zm-863.896,-238.614l831.977,0l-0,-297.377l-831.977,0l-0,297.377Zm795.532,-433.386l-753.436,0c-100.579,0 -182.108,79.896 -182.108,178.465l-0,1174.76c-0,98.579 81.529,178.475 182.108,178.475l753.436,-0c100.579,-0 182.109,-79.896 182.109,-178.475l0,-1174.76c0,-98.569 -81.53,-178.465 -182.109,-178.465Z"/></clipPath><g clip-path="url(#_clip1)"><g><circle cx="1947.09" cy="2440.33" r="734.809" style="fill:#00965f;"/></g></g><g transform="matrix(1.74246,3.18102e-47,2.38576e-47,1.74246,793.312,340.571)"><g transform="matrix(125.884,0,0,125.884,357.578,578.106)"><path d="M0.02,-0.282c0.011,-0.059 0.032,-0.11 0.064,-0.153c0.032,-0.044 0.072,-0.078 0.119,-0.101c0.048,-0.023 0.1,-0.035 0.156,-0.035c0.073,0 0.132,0.021 0.174,0.062c0.043,0.041 0.065,0.099 0.066,0.172l-0.235,0c-0.005,-0.029 -0.019,-0.044 -0.044,-0.044c-0.018,0 -0.034,0.008 -0.046,0.025c-0.014,0.017 -0.023,0.041 -0.029,0.074c-0.003,0.019 -0.004,0.031 -0.004,0.037c-0,0.021 0.004,0.036 0.012,0.047c0.008,0.01 0.019,0.015 0.033,0.015c0.025,0 0.045,-0.015 0.058,-0.044l0.235,-0c-0.026,0.073 -0.068,0.131 -0.126,0.172c-0.057,0.041 -0.123,0.062 -0.196,0.062c-0.075,-0 -0.134,-0.02 -0.178,-0.06c-0.043,-0.039 -0.065,-0.094 -0.065,-0.165c-0,-0.021 0.002,-0.042 0.006,-0.064Z" style="fill:#7ab592;fill-rule:nonzero;"/></g><g transform="matrix(125.884,0,0,125.884,434.241,578.106)"><path d="M0.267,0.007c-0.05,-0 -0.094,-0.01 -0.132,-0.029c-0.038,-0.019 -0.068,-0.047 -0.089,-0.082c-0.021,-0.036 -0.032,-0.078 -0.032,-0.125c-0,-0.065 0.015,-0.124 0.046,-0.176c0.031,-0.052 0.074,-0.093 0.128,-0.122c0.054,-0.029 0.114,-0.044 0.181,-0.044c0.05,0 0.094,0.01 0.132,0.03c0.038,0.019 0.068,0.047 0.089,0.083c0.021,0.035 0.032,0.077 0.032,0.124c0,0.065 -0.015,0.124 -0.046,0.176c-0.031,0.052 -0.073,0.093 -0.127,0.122c-0.054,0.029 -0.115,0.043 -0.182,0.043Zm0.034,-0.192c0.029,0 0.051,-0.013 0.068,-0.039c0.017,-0.026 0.025,-0.055 0.025,-0.087c0,-0.023 -0.005,-0.04 -0.016,-0.051c-0.011,-0.011 -0.026,-0.017 -0.043,-0.017c-0.029,0 -0.051,0.013 -0.068,0.039c-0.017,0.026 -0.025,0.055 -0.025,0.087c0,0.023 0.005,0.04 0.016,0.051c0.011,0.011 0.025,0.017 0.043,0.017Z" style="fill:#7ab592;fill-rule:nonzero;"/></g><g transform="matrix(125.884,0,0,125.884,514.304,536.106)"><path d="M0.009,-0.177c0.099,-0.066 0.179,-0.125 0.239,-0.176c0.06,-0.051 0.094,-0.097 0.101,-0.138c0.001,-0.009 0.002,-0.015 0.002,-0.018c-0,-0.021 -0.009,-0.032 -0.028,-0.032c-0.013,0 -0.024,0.006 -0.032,0.018c-0.007,0.011 -0.014,0.033 -0.02,0.065l-0.215,0c0.019,-0.091 0.058,-0.159 0.116,-0.203c0.059,-0.044 0.126,-0.066 0.201,-0.066c0.073,0 0.127,0.016 0.16,0.048c0.033,0.031 0.05,0.072 0.05,0.122c-0,0.009 -0.001,0.024 -0.004,0.044c-0.011,0.063 -0.043,0.123 -0.095,0.179c-0.051,0.056 -0.113,0.104 -0.184,0.145l0.229,0l-0.032,0.179l-0.517,0l0.029,-0.167Z" style="fill:#7ab592;fill-rule:nonzero;"/></g></g></g></svg>