<?xml version="1.0" encoding="UTF-8" standalone="no"?>
<!DOCTYPE svg PUBLIC "-//W3C//DTD SVG 1.1//EN" "http://www.w3.org/Graphics/SVG/1.1/DTD/svg11.dtd"><svg width="100%"
    height="100%" viewBox="0 0 3334 2500" version="1.1" xmlns="http://www.w3.org/2000/svg"
    xmlns:xlink="http://www.w3.org/1999/xlink" xml:space="preserve" xmlns:serif="http://www.serif.com/"
    style="fill-rule:evenodd;clip-rule:evenodd;stroke-linejoin:round;stroke-miterlimit:2;">
    <g transform="matrix(4.16667,0,0,4.16667,-506.194,237.846)">
        <g transform="matrix(0.767597,-0.640933,0.640933,0.767597,-68.9982,229.239)"><text x="281.605px" y="209.763px"
                style="font-family:'Poppins-BlackItalic', 'Poppins';font-weight:900;font-style:italic;font-size:198px;fill:#7ab592;">C</text>
        </g>
        <g transform="matrix(0.983301,-0.181984,0.181984,0.983301,-14.1162,74.615)"><text x="399.526px" y="114.228px"
                style="font-family:'Poppins-BlackItalic', 'Poppins';font-weight:900;font-style:italic;font-size:198px;fill:#7ab592;">A</text>
        </g>
        <g transform="matrix(0.958005,0.286752,-0.286752,0.958005,50.649,-154.194)"><text x="551.762px" y="95.824px"
                style="font-family:'Poppins-BlackItalic', 'Poppins';font-weight:900;font-style:italic;font-size:198px;fill:#7ab592;">L</text>
        </g>
        <g transform="matrix(0.705465,0.708745,-0.708745,0.705465,278.11,-427.595)"><text x="653.519px" y="120.813px"
                style="font-family:'Poppins-BlackItalic', 'Poppins';font-weight:900;font-style:italic;font-size:198px;fill:#7ab592;">C</text>
        </g>
    </g>
    <g>
        <path id="Caculator"
            d="M1949.44,2359.07c-72.357,0 -131.016,-57.498 -131.016,-128.405c-0,-70.917 58.659,-128.405 131.016,-128.405c72.352,-0 131.021,57.488 131.021,128.405c0,70.907 -58.669,128.405 -131.021,128.405Zm-14.682,-563.781c72.362,-0 131.016,57.489 131.016,128.405c0,70.916 -58.654,128.405 -131.016,128.405c-72.362,-0 -131.017,-57.489 -131.017,-128.405c0,-70.916 58.655,-128.405 131.017,-128.405Zm-314.445,-54.958c-72.352,0 -131.016,-57.489 -131.016,-128.405c-0,-70.907 58.664,-128.405 131.016,-128.405c72.362,-0 131.017,57.498 131.017,128.405c-0,70.916 -58.655,128.405 -131.017,128.405Zm0,311.768c-72.352,-0 -131.016,-57.489 -131.016,-128.405c-0,-70.916 58.664,-128.405 131.016,-128.405c72.362,-0 131.017,57.489 131.017,128.405c-0,70.916 -58.655,128.405 -131.017,128.405Zm131.017,188.159c-0,70.908 -58.655,128.406 -131.017,128.406l-311.682,-0c-72.352,-0 -131.022,-57.498 -131.022,-128.406c0,-70.925 58.67,-128.405 131.022,-128.405l311.682,0c72.362,0 131.017,57.48 131.017,128.405Zm-445.461,-444.969c72.372,-0 131.016,57.489 131.016,128.405c0,70.916 -58.644,128.405 -131.016,128.405c-72.352,-0 -131.017,-57.489 -131.017,-128.405c0,-70.916 58.665,-128.405 131.017,-128.405Zm-0,-311.768c72.372,-0 131.016,57.498 131.016,128.405c0,70.916 -58.644,128.405 -131.016,128.405c-72.352,0 -131.017,-57.489 -131.017,-128.405c0,-70.907 58.665,-128.405 131.017,-128.405Zm759.905,128.405c0,70.916 -58.654,128.405 -131.016,128.405c-72.362,0 -131.017,-57.489 -131.017,-128.405c0,-70.907 58.655,-128.405 131.017,-128.405c72.362,-0 131.016,57.498 131.016,128.405Zm-863.896,-238.614l831.977,0l-0,-297.377l-831.977,0l-0,297.377Zm795.532,-433.386l-753.436,0c-100.579,0 -182.108,79.896 -182.108,178.465l-0,1174.76c-0,98.579 81.529,178.475 182.108,178.475l753.436,-0c100.579,-0 182.109,-79.896 182.109,-178.475l0,-1174.76c0,-98.569 -81.53,-178.465 -182.109,-178.465Z"
            style="fill:#55795b;" />
        <clipPath id="_clip1">
            <path
                d="M1949.44,2359.07c-72.357,0 -131.016,-57.498 -131.016,-128.405c-0,-70.917 58.659,-128.405 131.016,-128.405c72.352,-0 131.021,57.488 131.021,128.405c0,70.907 -58.669,128.405 -131.021,128.405Zm-14.682,-563.781c72.362,-0 131.016,57.489 131.016,128.405c0,70.916 -58.654,128.405 -131.016,128.405c-72.362,-0 -131.017,-57.489 -131.017,-128.405c0,-70.916 58.655,-128.405 131.017,-128.405Zm-314.445,-54.958c-72.352,0 -131.016,-57.489 -131.016,-128.405c-0,-70.907 58.664,-128.405 131.016,-128.405c72.362,-0 131.017,57.498 131.017,128.405c-0,70.916 -58.655,128.405 -131.017,128.405Zm0,311.768c-72.352,-0 -131.016,-57.489 -131.016,-128.405c-0,-70.916 58.664,-128.405 131.016,-128.405c72.362,-0 131.017,57.489 131.017,128.405c-0,70.916 -58.655,128.405 -131.017,128.405Zm131.017,188.159c-0,70.908 -58.655,128.406 -131.017,128.406l-311.682,-0c-72.352,-0 -131.022,-57.498 -131.022,-128.406c0,-70.925 58.67,-128.405 131.022,-128.405l311.682,0c72.362,0 131.017,57.48 131.017,128.405Zm-445.461,-444.969c72.372,-0 131.016,57.489 131.016,128.405c0,70.916 -58.644,128.405 -131.016,128.405c-72.352,-0 -131.017,-57.489 -131.017,-128.405c0,-70.916 58.665,-128.405 131.017,-128.405Zm-0,-311.768c72.372,-0 131.016,57.498 131.016,128.405c0,70.916 -58.644,128.405 -131.016,128.405c-72.352,0 -131.017,-57.489 -131.017,-128.405c0,-70.907 58.665,-128.405 131.017,-128.405Zm759.905,128.405c0,70.916 -58.654,128.405 -131.016,128.405c-72.362,0 -131.017,-57.489 -131.017,-128.405c0,-70.907 58.655,-128.405 131.017,-128.405c72.362,-0 131.016,57.498 131.016,128.405Zm-863.896,-238.614l831.977,0l-0,-297.377l-831.977,0l-0,297.377Zm795.532,-433.386l-753.436,0c-100.579,0 -182.108,79.896 -182.108,178.465l-0,1174.76c-0,98.579 81.529,178.475 182.108,178.475l753.436,-0c100.579,-0 182.109,-79.896 182.109,-178.475l0,-1174.76c0,-98.569 -81.53,-178.465 -182.109,-178.465Z" />
        </clipPath>
        <g clip-path="url(#_clip1)">
            <g>
                <circle cx="1947.09" cy="2440.33" r="734.809" style="fill:#00965f;" />
            </g>
        </g>
        <g transform="matrix(1.74246,3.18102e-47,2.38576e-47,1.74246,793.312,340.571)"><text x="357.578px" y="578.106px"
                style="font-family:'Poppins-BlackItalic', 'Poppins';font-weight:900;font-style:italic;font-size:125.884px;fill:#7ab592;">co</text><text
                x="514.304px" y="536.106px"
                style="font-family:'Poppins-BlackItalic', 'Poppins';font-weight:900;font-style:italic;font-size:125.884px;fill:#7ab592;">2</text>
        </g>
    </g>
</svg>